# This file uses centimeters as units for non-parametric coordinates.

mtllib Bottle_cap.mtl
g default
v 0.172066 0.003950 -0.125013
v 0.065723 0.003950 -0.202276
v -0.065723 0.003950 -0.202276
v -0.172066 0.003950 -0.125013
v -0.212685 0.003950 0.000000
v -0.172066 0.003950 0.125013
v -0.065723 0.003950 0.202276
v 0.065723 0.003950 0.202276
v 0.172066 0.003950 0.125013
v 0.212685 0.003950 0.000000
v 0.156766 0.050859 -0.113897
v 0.059879 0.050859 -0.184290
v -0.059879 0.050859 -0.184290
v -0.156766 0.050859 -0.113897
v -0.193774 0.050859 0.000000
v -0.156766 0.050859 0.113897
v -0.059879 0.050859 0.184290
v 0.059879 0.050859 0.184290
v 0.156766 0.050859 0.113897
v 0.193774 0.050859 -0.000000
v 0.151796 0.072000 -0.110286
v 0.057981 0.072000 -0.178447
v -0.057981 0.072000 -0.178447
v -0.151796 0.072000 -0.110286
v -0.187630 0.072000 -0.000000
v -0.151796 0.072000 0.110286
v -0.057981 0.072000 0.178447
v 0.057981 0.072000 0.178447
v 0.151796 0.072000 0.110286
v 0.187630 0.072000 -0.000000
v 0.000000 0.003950 0.000000
v 0.000000 0.153950 0.000000
v 0.151717 0.133464 -0.110229
v 0.134265 0.153950 -0.097549
v 0.057951 0.133464 -0.178354
v 0.051285 0.153950 -0.157838
v -0.057951 0.133464 -0.178354
v -0.051285 0.153950 -0.157838
v -0.151717 0.133464 -0.110229
v -0.134265 0.153950 -0.097549
v -0.187533 0.133464 -0.000000
v -0.165960 0.153950 0.000000
v -0.151717 0.133464 0.110229
v -0.134265 0.153950 0.097549
v -0.057951 0.133464 0.178354
v -0.051285 0.153950 0.157838
v 0.057951 0.133464 0.178354
v 0.051285 0.153950 0.157838
v 0.151717 0.133464 0.110229
v 0.134265 0.153950 0.097549
v 0.187532 0.133464 -0.000000
v 0.165960 0.153950 -0.000000
vt 0.129370 0.316194
vt 0.032568 0.449430
vt 0.032568 0.614120
vt 0.129370 0.747356
vt 0.285999 0.798248
vt 0.442628 0.747356
vt 0.539430 0.614120
vt 0.539430 0.449430
vt 0.442628 0.316194
vt 0.285999 0.265302
vt 0.346127 0.815556
vt 0.497627 0.815556
vt 0.649081 0.815556
vt 0.801021 0.815556
vt 0.181575 0.815525
vt 0.333041 0.815524
vt 0.497999 0.815515
vt 0.649377 0.815515
vt 0.800910 0.815515
vt 0.181502 0.815519
vt 0.333031 0.815519
vt 0.346127 0.877657
vt 0.497627 0.877657
vt 0.649081 0.877657
vt 0.029892 0.877727
vt 0.181575 0.877727
vt 0.346237 0.877680
vt 0.497999 0.877680
vt 0.649377 0.877680
vt 0.029902 0.877754
vt 0.181502 0.877754
vt 0.333031 0.877754
vt 0.346127 0.905094
vt 0.285999 0.531775
vt 0.333031 0.981447
vt 0.934728 0.212630
vt 0.862556 0.106512
vt 0.930742 0.340904
vt 0.852120 0.442336
vt 0.728893 0.478183
vt 0.608129 0.434754
vt 0.535957 0.328635
vt 0.539943 0.200362
vt 0.618565 0.098929
vt 0.741792 0.063082
vt 0.497627 0.905094
vt 0.649081 0.905094
vt 0.497627 0.981411
vt 0.029892 0.905179
vt 0.649081 0.981411
vt 0.181575 0.905179
vt 0.801021 0.981411
vt 0.346237 0.905106
vt 0.181575 0.981442
vt 0.497999 0.905106
vt 0.333041 0.981442
vt 0.649377 0.905106
vt 0.497999 0.981451
vt 0.029902 0.905200
vt 0.649377 0.981451
vt 0.181502 0.905200
vt 0.800910 0.981451
vt 0.333031 0.905200
vt 0.181502 0.981447
vt 0.735343 0.270633
vt 0.743281 0.025504
vt 0.885848 0.076985
vt 0.597682 0.067653
vt 0.504664 0.187334
vt 0.499758 0.338832
vt 0.584837 0.464280
vt 0.727404 0.515761
vt 0.873003 0.473612
vt 0.966021 0.353932
vt 0.970927 0.202434
vt 0.346127 0.981411
vt 0.800910 0.905106
vt 0.029902 0.981447
vt 0.333041 0.905179
vt 0.346237 0.981451
vt 0.801021 0.905094
vt 0.029892 0.981442
vt 0.800910 0.877680
vt 0.333041 0.877727
vt 0.801021 0.877657
vt 0.029902 0.815519
vt 0.346237 0.815515
vt 0.029892 0.815525
vn 0.548825 0.358012 -0.755393
vn 0.548825 0.358012 -0.755393
vn 0.554023 0.334036 -0.762547
vn 0.554023 0.334036 -0.762547
vn -0.000000 0.358012 -0.933717
vn -0.000000 0.358012 -0.933717
vn -0.000000 0.334036 -0.942560
vn -0.000000 0.334036 -0.942560
vn -0.548825 0.358012 -0.755393
vn -0.548825 0.358012 -0.755393
vn -0.554023 0.334036 -0.762547
vn -0.554023 0.334036 -0.762547
vn -0.888018 0.358012 -0.288534
vn -0.888018 0.358012 -0.288534
vn -0.896428 0.334036 -0.291267
vn -0.896428 0.334036 -0.291267
vn -0.888018 0.358011 0.288535
vn -0.888018 0.358011 0.288535
vn -0.896428 0.334036 0.291267
vn -0.896428 0.334036 0.291267
vn -0.548825 0.358012 0.755393
vn -0.548825 0.358012 0.755393
vn -0.554023 0.334037 0.762547
vn -0.554023 0.334037 0.762547
vn -0.000000 0.358012 0.933717
vn -0.000000 0.358012 0.933717
vn -0.000000 0.334037 0.942560
vn -0.000000 0.334037 0.942560
vn 0.548826 0.358011 0.755393
vn 0.548825 0.358011 0.755393
vn 0.554023 0.334037 0.762547
vn 0.554023 0.334037 0.762547
vn 0.888018 0.358011 0.288534
vn 0.888018 0.358011 0.288534
vn 0.896428 0.334037 0.291267
vn 0.896428 0.334037 0.291267
vn 0.888018 0.358012 -0.288534
vn 0.888018 0.358012 -0.288534
vn 0.896428 0.334036 -0.291267
vn 0.896428 0.334037 -0.291267
vn 0.586113 0.075385 -0.806715
vn 0.586113 0.075385 -0.806715
vn -0.000000 0.075384 -0.997155
vn -0.000000 0.075384 -0.997155
vn -0.586113 0.075384 -0.806715
vn -0.586113 0.075384 -0.806715
vn -0.948350 0.075384 -0.308138
vn -0.948350 0.075384 -0.308138
vn -0.948350 0.075385 0.308138
vn -0.948350 0.075385 0.308138
vn -0.586113 0.075385 0.806715
vn -0.586113 0.075385 0.806715
vn -0.000000 0.075385 0.997155
vn -0.000000 0.075385 0.997155
vn 0.586113 0.075385 0.806715
vn 0.586113 0.075385 0.806715
vn 0.948350 0.075385 0.308138
vn 0.948350 0.075385 0.308138
vn 0.948350 0.075386 -0.308138
vn 0.948350 0.075386 -0.308138
vn 0.000000 -1.000000 0.000000
vn 0.000000 -1.000000 0.000000
vn 0.000000 -1.000000 0.000000
vn 0.000000 -1.000000 0.000000
vn 0.000000 -1.000000 0.000000
vn 0.000000 -1.000000 0.000000
vn 0.000000 -1.000000 0.000000
vn 0.000000 -1.000000 0.000000
vn 0.000000 -1.000000 0.000000
vn 0.000000 -1.000000 0.000000
vn 0.000000 -1.000000 0.000000
vn 0.557095 0.725134 -0.404754
vn 0.557096 0.725134 -0.404753
vn 0.688607 0.725135 0.000000
vn 0.688607 0.725135 -0.000000
vn 0.212791 0.725135 -0.654904
vn 0.212791 0.725135 -0.654904
vn -0.212791 0.725135 -0.654904
vn -0.212791 0.725135 -0.654904
vn -0.557094 0.725135 -0.404753
vn -0.557095 0.725135 -0.404753
vn -0.688607 0.725134 0.000000
vn -0.688607 0.725134 0.000000
vn -0.557095 0.725134 0.404754
vn -0.557095 0.725134 0.404753
vn -0.212791 0.725135 0.654904
vn -0.212791 0.725135 0.654904
vn 0.212791 0.725136 0.654904
vn 0.212791 0.725136 0.654904
vn 0.557094 0.725136 0.404752
vn 0.557094 0.725136 0.404752
vn 0.587785 0.001508 -0.809016
vn 0.587785 0.001508 -0.809016
vn 0.000000 0.001508 -0.999999
vn 0.000000 0.001508 -0.999999
vn -0.587785 0.001508 -0.809016
vn -0.587785 0.001508 -0.809016
vn -0.951056 0.001507 -0.309017
vn -0.951055 0.001507 -0.309017
vn -0.951055 0.001507 0.309017
vn -0.951055 0.001507 0.309017
vn -0.587785 0.001508 0.809016
vn -0.587785 0.001508 0.809016
vn -0.000000 0.001507 0.999999
vn -0.000000 0.001507 0.999999
vn 0.587785 0.001507 0.809016
vn 0.587785 0.001507 0.809016
vn 0.951056 0.001507 0.309016
vn 0.951056 0.001507 0.309016
vn 0.951055 0.001509 -0.309017
vn 0.951055 0.001509 -0.309017
vn 0.000000 1.000000 0.000000
vn 0.000000 1.000000 0.000000
vn 0.000000 1.000000 -0.000000
vn 0.000000 1.000000 0.000000
vn 0.000000 1.000000 0.000000
vn 0.000000 1.000000 0.000000
vn 0.000000 1.000000 -0.000000
vn 0.000000 1.000000 -0.000000
vn 0.000000 1.000000 0.000000
vn 0.000000 1.000000 -0.000000
vn 0.000000 1.000000 -0.000000
s 1
g bottle_cap
usemtl standardSurface2SG
f 1/11/1 2/12/2 12/23/3 11/22/4
s 2
f 2/12/5 3/13/6 13/24/7 12/23/8
s 3
f 3/13/9 4/14/10 14/85/11 13/24/12
s 4
f 4/88/13 5/15/14 15/26/15 14/25/16
s 5
f 5/15/17 6/16/18 16/84/19 15/26/20
s 6
f 6/87/21 7/17/22 17/28/23 16/27/24
s 7
f 7/17/25 8/18/26 18/29/27 17/28/28
s 8
f 8/18/29 9/19/30 19/83/31 18/29/32
s 9
f 9/86/33 10/20/34 20/31/35 19/30/36
s 10
f 10/20/37 1/21/38 11/32/39 20/31/40
s 1
f 11/22/4 12/23/3 22/46/41 21/33/42
s 2
f 12/23/8 13/24/7 23/47/43 22/46/44
s 3
f 13/24/12 14/85/11 24/81/45 23/47/46
s 4
f 14/25/16 15/26/15 25/51/47 24/49/48
s 5
f 15/26/20 16/84/19 26/79/49 25/51/50
s 6
f 16/27/24 17/28/23 27/55/51 26/53/52
s 7
f 17/28/28 18/29/27 28/57/53 27/55/54
s 8
f 18/29/32 19/83/31 29/77/55 28/57/56
s 9
f 19/30/36 20/31/35 30/61/57 29/59/58
s 10
f 20/31/40 11/32/39 21/63/59 30/61/60
s 11
f 2/2/61 1/1/62 31/34/63
f 3/3/64 2/2/61 31/34/63
f 4/4/65 3/3/64 31/34/63
f 5/5/66 4/4/65 31/34/63
f 6/6/67 5/5/66 31/34/63
f 7/7/68 6/6/67 31/34/63
f 8/8/69 7/7/68 31/34/63
f 9/9/70 8/8/69 31/34/63
f 10/10/71 9/9/70 31/34/63
f 1/1/62 10/10/71 31/34/63
s 12
f 33/75/72 34/36/73 52/37/74 51/67/75
f 34/36/73 33/75/72 35/74/76 36/38/77
f 36/38/77 35/74/76 37/73/78 38/39/79
f 38/39/79 37/73/78 39/72/80 40/40/81
f 40/40/81 39/72/80 41/71/82 42/41/83
f 42/41/83 41/71/82 43/70/84 44/42/85
f 44/42/85 43/70/84 45/69/86 46/43/87
f 46/43/87 45/69/86 47/68/88 48/44/89
f 48/44/89 47/68/88 49/66/90 50/45/91
f 50/45/91 49/66/90 51/67/75 52/37/74
s 1
f 21/33/42 22/46/41 35/48/92 33/76/93
s 2
f 22/46/44 23/47/43 37/50/94 35/48/95
s 3
f 23/47/46 24/81/45 39/52/96 37/50/97
s 4
f 24/49/48 25/51/47 41/54/98 39/82/99
s 5
f 25/51/50 26/79/49 43/56/100 41/54/101
s 6
f 26/53/52 27/55/51 45/58/102 43/80/103
s 7
f 27/55/54 28/57/53 47/60/104 45/58/105
s 8
f 28/57/56 29/77/55 49/62/106 47/60/107
s 9
f 29/59/58 30/61/57 51/64/108 49/78/109
s 10
f 30/61/60 21/63/59 33/35/110 51/64/111
s 13
f 34/36/112 36/38/113 32/65/114
f 36/38/113 38/39/115 32/65/114
f 38/39/115 40/40/116 32/65/114
f 40/40/116 42/41/117 32/65/114
f 42/41/117 44/42/118 32/65/114
f 44/42/118 46/43/119 32/65/114
f 46/43/119 48/44/120 32/65/114
f 48/44/120 50/45/121 32/65/114
f 50/45/121 52/37/122 32/65/114
f 52/37/122 34/36/112 32/65/114
