# This file uses centimeters as units for non-parametric coordinates.

mtllib clam_bottom.mtl
g default
v -0.543226 0.344411 0.146100
v -0.550559 0.298166 0.064659
v -0.550559 0.298166 -0.060020
v -0.537237 0.359419 -0.154118
v -0.478930 0.273555 0.305691
v -0.479646 0.193214 0.138933
v -0.494699 0.188761 -0.103678
v -0.463752 0.302486 -0.289431
v -0.347567 0.205260 0.409548
v -0.346941 0.084510 0.199352
v -0.365984 0.098783 -0.144155
v -0.329486 0.250119 -0.364179
v -0.173221 0.139972 0.498363
v -0.176584 0.029699 0.240346
v -0.185568 0.025819 -0.174152
v -0.173221 0.202422 -0.437577
v 0.002715 0.116366 0.519769
v 0.002715 0.007394 0.269107
v 0.002715 0.006404 -0.183978
v 0.002715 0.191880 -0.453572
v 0.173221 0.139972 0.498363
v 0.175911 0.029699 0.240346
v 0.185568 0.025819 -0.174152
v 0.173221 0.202422 -0.437577
v 0.347567 0.205260 0.409548
v 0.350690 0.084510 0.199352
v 0.365984 0.098783 -0.144155
v 0.329486 0.250119 -0.364179
v 0.478579 0.273556 0.305691
v 0.499110 0.193214 0.138933
v 0.494349 0.188761 -0.103678
v 0.463401 0.302486 -0.289431
v 0.543226 0.344411 0.146100
v 0.550559 0.298166 0.064659
v 0.550559 0.298166 -0.060020
v 0.537237 0.359419 -0.154118
v -0.535145 0.401070 0.203343
v -0.477839 0.366042 0.381395
v -0.353554 0.331653 0.552216
v -0.196107 0.299087 0.652382
v 0.002715 0.287283 0.687705
v 0.196107 0.299087 0.652382
v 0.353554 0.331653 0.552216
v 0.477489 0.366042 0.381395
v 0.535145 0.401070 0.203343
v -0.461003 0.463697 0.207619
v -0.413774 0.467811 0.385552
v -0.463269 0.464363 -0.168099
v -0.406962 0.475755 -0.305841
v -0.303804 0.468763 0.516970
v -0.291557 0.483250 -0.406088
v -0.167567 0.470179 0.615972
v -0.153466 0.485194 -0.471869
v 0.002715 0.472006 0.649963
v 0.002715 0.485701 -0.494437
v 0.167501 0.470177 0.615984
v 0.153413 0.485192 -0.471875
v 0.303770 0.468753 0.517008
v 0.291520 0.483239 -0.406116
v 0.413410 0.467825 0.385532
v 0.406606 0.475767 -0.305806
v 0.461022 0.463720 0.207560
v 0.463300 0.464387 -0.168037
v -0.506766 0.461867 0.001223
v 0.506766 0.461867 0.001223
v -0.293621 0.339928 0.167451
v -0.261182 0.339928 0.300449
v -0.294599 0.339928 -0.107661
v -0.256958 0.339928 -0.194368
v -0.184319 0.339928 0.381075
v -0.184141 0.339928 -0.241131
v -0.098006 0.339928 0.446791
v -0.096361 0.339928 -0.280770
v 0.002715 0.339928 0.465018
v 0.002715 0.339928 -0.294320
v 0.097816 0.339928 0.446830
v 0.096196 0.339928 -0.280794
v 0.184229 0.339928 0.381192
v 0.184026 0.339928 -0.241238
v 0.260798 0.339928 0.300382
v 0.256593 0.339928 -0.194256
v 0.293652 0.339928 0.167268
v 0.294670 0.339928 -0.107450
v -0.336879 0.339928 0.010102
v 0.336858 0.339928 0.010098
v 0.002715 0.284058 0.022465
v -0.533157 0.455693 0.224173
v -0.533054 0.458528 0.225254
v -0.530111 0.458739 0.224534
v -0.477839 0.455609 0.417851
v -0.477839 0.458528 0.419039
v -0.475100 0.458925 0.417607
v -0.533176 0.454435 -0.190732
v -0.533054 0.457288 -0.191832
v -0.530111 0.457586 -0.190831
v -0.463752 0.455720 -0.346401
v -0.463752 0.458528 -0.347445
v -0.461301 0.459271 -0.345650
v -0.353554 0.455151 0.569982
v -0.353554 0.458046 0.570398
v -0.351575 0.458472 0.568274
v -0.329486 0.455281 -0.462825
v -0.329486 0.458046 -0.464155
v -0.327881 0.459113 -0.461698
v -0.196107 0.455272 0.681372
v -0.196107 0.458201 0.681916
v -0.194922 0.458699 0.679179
v -0.173221 0.455448 -0.536507
v -0.173221 0.458201 -0.537583
v -0.172423 0.459293 -0.534927
v 0.002715 0.455280 0.721074
v 0.002715 0.458201 0.721654
v 0.002715 0.458775 0.718674
v 0.002715 0.455440 -0.561752
v 0.002715 0.458201 -0.562885
v 0.002715 0.459322 -0.560095
v 0.196107 0.455271 0.681372
v 0.196107 0.458201 0.681916
v 0.194905 0.458704 0.679147
v 0.173221 0.455448 -0.536507
v 0.173221 0.458201 -0.537583
v 0.172421 0.459292 -0.534928
v 0.353554 0.455151 0.569982
v 0.353554 0.458046 0.570398
v 0.351551 0.458477 0.568251
v 0.329486 0.455281 -0.462825
v 0.329486 0.458046 -0.464155
v 0.327896 0.459101 -0.461724
v 0.477489 0.455609 0.417851
v 0.477489 0.458528 0.419039
v 0.474578 0.458950 0.417516
v 0.463401 0.455720 -0.346401
v 0.463401 0.458528 -0.347445
v 0.461008 0.459254 -0.345690
v 0.533159 0.455655 0.224158
v 0.533054 0.458528 0.225254
v 0.530072 0.458743 0.224522
v 0.533176 0.454435 -0.190732
v 0.533054 0.457288 -0.191832
v 0.530210 0.457577 -0.190861
v -0.578773 0.455390 0.000017
v -0.579336 0.458528 -0.000000
v -0.576075 0.458678 0.000054
v 0.578772 0.455390 0.000017
v 0.579336 0.458528 -0.000000
v 0.576075 0.458678 0.000054
vt 0.517278 0.204761
vt 0.578083 0.175088
vt 0.523728 0.270726
vt 0.648098 0.123756
vt 0.597116 0.232175
vt 0.546857 0.340360
vt 0.687338 0.158362
vt 0.742394 0.506623
vt 0.680978 0.481506
vt 0.791253 0.459285
vt 0.620807 0.439445
vt 0.739278 0.422523
vt 0.857113 0.403906
vt 0.835245 0.356258
vt 0.622162 0.287304
vt 0.730538 0.204546
vt 0.651354 0.340458
vt 0.581790 0.392593
vt 0.769648 0.252147
vt 0.692757 0.381937
vt 0.803166 0.301734
vt 0.165207 0.609187
vt 0.151134 0.666885
vt 0.198553 0.574208
vt 0.279695 0.729786
vt 0.132367 0.735149
vt 0.235998 0.545698
vt 0.150710 0.786239
vt 0.279695 0.537791
vt 0.167040 0.823855
vt 0.320953 0.545682
vt 0.198630 0.844142
vt 0.358442 0.574158
vt 0.236712 0.861339
vt 0.391660 0.609215
vt 0.279695 0.867218
vt 0.405913 0.666965
vt 0.320250 0.861349
vt 0.424657 0.735151
vt 0.358353 0.844189
vt 0.406354 0.786147
vt 0.389835 0.823806
vt 0.487082 0.134732
vt 0.474517 0.214485
vt 0.729303 0.017613
vt 0.438906 0.214929
vt 0.463740 0.300832
vt 0.707126 0.071452
vt 0.809056 0.036104
vt 0.419743 0.304132
vt 0.481114 0.372533
vt 0.760794 0.100366
vt 0.876872 0.074907
vt 0.429947 0.392853
vt 0.517553 0.440734
vt 0.812573 0.140596
vt 0.930705 0.132624
vt 0.472592 0.474498
vt 0.571309 0.493419
vt 0.855330 0.188461
vt 0.969131 0.198831
vt 0.537375 0.536727
vt 0.635131 0.530490
vt 0.887861 0.241516
vt 0.987020 0.274818
vt 0.619494 0.571747
vt 0.720931 0.544820
vt 0.911684 0.302630
vt 0.982022 0.356361
vt 0.710366 0.578817
vt 0.924102 0.362254
vt 0.950997 0.431077
vt 0.508124 0.140265
vt 0.539426 0.135561
vt 0.574501 0.124557
vt 0.614867 0.097843
vt 0.563151 0.061675
vt 0.648839 0.026191
vt 0.642654 0.063419
vt 0.801203 0.555759
vt 0.801892 0.534054
vt 0.835864 0.474759
vt 0.872738 0.443383
vt 0.913556 0.426445
vt 0.892918 0.503315
vt 0.815405 0.505497
vt 0.072402 0.558360
vt 0.078518 0.649459
vt 0.048537 0.822320
vt 0.101963 0.872216
vt 0.125991 0.492995
vt 0.099008 0.572266
vt 0.078389 0.889486
vt 0.152030 0.915706
vt 0.193953 0.444881
vt 0.146716 0.515253
vt 0.136271 0.939832
vt 0.211938 0.944244
vt 0.279695 0.427746
vt 0.205820 0.472302
vt 0.203714 0.971601
vt 0.279695 0.954035
vt 0.363073 0.444895
vt 0.279695 0.457556
vt 0.279695 0.982520
vt 0.345073 0.944247
vt 0.431031 0.493005
vt 0.351184 0.472297
vt 0.353318 0.971601
vt 0.404988 0.915718
vt 0.484404 0.558399
vt 0.410302 0.515236
vt 0.420769 0.939843
vt 0.454916 0.872201
vt 0.508480 0.642126
vt 0.457868 0.572275
vt 0.478517 0.889504
vt 0.479512 0.812432
vt 0.048537 0.642121
vt 0.058664 0.739001
vt 0.028596 0.739508
vt 0.077535 0.812458
vt 0.528437 0.739508
vt 0.478523 0.649485
vt 0.508539 0.822334
vt 0.498369 0.739001
vt 0.485990 0.134444
vt 0.047260 0.641809
vt 0.437745 0.214944
vt 0.071214 0.557738
vt 0.649024 0.025073
vt 0.047260 0.822755
vt 0.077326 0.890265
vt 0.729709 0.016627
vt 0.418712 0.304209
vt 0.125133 0.492074
vt 0.135575 0.940898
vt 0.809706 0.035237
vt 0.428988 0.393235
vt 0.193439 0.443694
vt 0.203368 0.972753
vt 0.877572 0.074192
vt 0.471810 0.475085
vt 0.279695 0.426454
vt 0.279695 0.983730
vt 0.931495 0.132039
vt 0.536739 0.537540
vt 0.363594 0.443694
vt 0.353666 0.972753
vt 0.970016 0.198366
vt 0.619127 0.572714
vt 0.431900 0.492074
vt 0.421459 0.940898
vt 0.988035 0.274443
vt 0.710022 0.579925
vt 0.485667 0.557738
vt 0.479556 0.890265
vt 0.983083 0.356253
vt 0.801167 0.556901
vt 0.509773 0.641809
vt 0.509773 0.822755
vt 0.952120 0.431216
vt 0.027181 0.739532
vt 0.562513 0.060693
vt 0.562513 0.060693
vt 0.529852 0.739532
vt 0.893681 0.504206
vt 0.893681 0.504206
vn -0.936482 -0.266175 0.228370
vn -0.913821 -0.392251 0.105216
vn -0.894041 -0.386678 0.226209
vn -0.894041 -0.386678 0.226209
vn -0.922790 -0.362302 -0.131135
vn -0.862578 -0.504222 0.041464
vn -0.862578 -0.504222 0.041464
vn -0.917048 -0.208348 -0.340021
vn -0.699504 -0.434814 -0.567125
vn -0.883793 -0.320925 -0.340465
vn -0.662417 -0.660900 0.352724
vn -0.662417 -0.660900 0.352724
vn -0.662417 -0.660900 0.352724
vn -0.662418 -0.660900 0.352724
vn -0.606004 -0.795159 0.021930
vn -0.606004 -0.795159 0.021930
vn -0.606004 -0.795159 0.021930
vn -0.606004 -0.795159 0.021930
vn -0.571467 -0.640314 -0.513248
vn -0.499728 -0.557166 -0.663203
vn -0.571467 -0.640314 -0.513248
vn -0.432396 -0.807604 0.401011
vn -0.432396 -0.807604 0.401011
vn -0.432396 -0.807604 0.401011
vn -0.432396 -0.807604 0.401011
vn -0.342261 -0.939605 -0.000229
vn -0.342261 -0.939605 -0.000229
vn -0.342261 -0.939605 -0.000229
vn -0.342261 -0.939605 -0.000229
vn -0.425883 -0.728196 -0.536986
vn -0.332223 -0.507228 -0.795203
vn -0.425883 -0.728196 -0.536986
vn -0.172060 -0.904223 0.390866
vn -0.172060 -0.904223 0.390866
vn -0.172060 -0.904223 0.390866
vn -0.172060 -0.904223 0.390866
vn -0.113113 -0.993559 0.006747
vn -0.113113 -0.993559 0.006747
vn -0.113113 -0.993559 0.006747
vn -0.113113 -0.993559 0.006747
vn -0.107276 -0.821267 -0.560369
vn -0.107276 -0.821267 -0.560369
vn -0.107276 -0.821267 -0.560369
vn -0.107276 -0.821267 -0.560369
vn 0.177640 -0.903385 0.390306
vn 0.177640 -0.903385 0.390306
vn 0.177640 -0.903385 0.390306
vn 0.177640 -0.903385 0.390306
vn 0.116735 -0.993139 0.006873
vn 0.116735 -0.993139 0.006873
vn 0.116735 -0.993139 0.006873
vn 0.116735 -0.993139 0.006873
vn 0.110534 -0.820936 -0.560220
vn 0.110534 -0.820936 -0.560220
vn 0.110534 -0.820936 -0.560220
vn 0.110534 -0.820936 -0.560220
vn 0.428293 -0.808242 0.404116
vn 0.428293 -0.808242 0.404116
vn 0.428293 -0.808242 0.404116
vn 0.428293 -0.808242 0.404116
vn 0.338448 -0.940984 -0.001762
vn 0.338448 -0.940984 -0.001762
vn 0.338448 -0.940984 -0.001762
vn 0.338448 -0.940984 -0.001762
vn 0.425883 -0.728196 -0.536986
vn 0.335817 -0.508359 -0.792968
vn 0.500052 -0.557039 -0.663066
vn 0.425883 -0.728196 -0.536986
vn 0.645423 -0.656371 0.390649
vn 0.645423 -0.656371 0.390649
vn 0.645423 -0.656371 0.390649
vn 0.645423 -0.656371 0.390649
vn 0.582988 -0.812475 -0.003136
vn 0.582988 -0.812475 -0.003136
vn 0.582988 -0.812475 -0.003136
vn 0.582988 -0.812475 -0.003136
vn 0.572493 -0.639622 -0.512967
vn 0.699919 -0.434450 -0.566892
vn 0.572493 -0.639622 -0.512967
vn 0.926769 -0.282168 0.247952
vn 0.926769 -0.282168 0.247952
vn 0.938399 -0.334176 0.087942
vn 0.948252 -0.209694 0.238426
vn 0.893254 -0.449512 -0.006129
vn 0.893254 -0.449512 -0.006129
vn 0.929450 -0.335835 -0.152765
vn 0.882743 -0.322765 -0.341449
vn 0.916406 -0.209454 -0.341071
vn -0.837667 -0.303110 0.454355
vn -0.956473 -0.131780 0.260372
vn -0.941104 -0.190897 0.279075
vn -0.697061 -0.249741 0.672113
vn -0.719625 -0.498421 0.483442
vn -0.719625 -0.498421 0.483442
vn -0.513411 -0.642755 0.568572
vn -0.513411 -0.642755 0.568572
vn -0.513411 -0.642755 0.568572
vn -0.513411 -0.642755 0.568572
vn -0.171422 -0.694022 0.699248
vn -0.171422 -0.694022 0.699248
vn -0.171422 -0.694022 0.699248
vn -0.171422 -0.694022 0.699248
vn 0.176371 -0.693586 0.698449
vn 0.176371 -0.693587 0.698449
vn 0.176371 -0.693587 0.698449
vn 0.176371 -0.693587 0.698449
vn 0.513412 -0.642755 0.568572
vn 0.513412 -0.642755 0.568572
vn 0.513412 -0.642755 0.568572
vn 0.513412 -0.642755 0.568572
vn 0.837907 -0.302880 0.454067
vn 0.697573 -0.249368 0.671720
vn 0.720569 -0.497740 0.482738
vn 0.720569 -0.497740 0.482738
vn 0.956059 -0.132589 0.261481
vn 0.940457 -0.192125 0.280408
vn 0.572891 0.805709 -0.150429
vn 0.513242 0.813233 -0.274289
vn 0.395516 0.893859 -0.211148
vn 0.418599 0.901524 -0.109676
vn 0.434779 0.814919 0.383242
vn 0.540852 0.813266 0.214656
vn 0.408255 0.898504 0.161303
vn 0.356613 0.880932 0.311104
vn 0.393613 0.809886 -0.434919
vn 0.283845 0.906088 -0.313745
vn 0.294023 0.805101 0.515134
vn 0.231118 0.882705 0.409166
vn 0.225213 0.816425 -0.531723
vn 0.169149 0.903254 -0.394361
vn 0.161660 0.808321 0.566112
vn 0.130239 0.880672 0.455473
vn 0.000266 0.813637 -0.581373
vn -0.000085 0.905379 -0.424605
vn 0.000160 0.808130 0.589005
vn -0.000056 0.880013 0.474951
vn -0.229405 0.816225 -0.530237
vn -0.173021 0.902548 -0.394298
vn -0.164970 0.808199 0.565331
vn -0.133198 0.880264 0.455406
vn -0.393862 0.809979 -0.434518
vn -0.285116 0.905359 -0.314696
vn -0.294371 0.805206 0.514771
vn -0.232016 0.882089 0.409985
vn -0.513415 0.813145 -0.274227
vn -0.396924 0.893057 -0.211896
vn -0.435049 0.814838 0.383108
vn -0.357595 0.880275 0.311837
vn -0.572679 0.805746 -0.151037
vn -0.421121 0.900206 -0.110849
vn -0.540488 0.813313 0.215394
vn -0.410379 0.897256 0.162852
vn 0.572938 0.819597 0.001648
vn 0.450975 0.892534 -0.002166
vn -0.572937 0.819598 0.001600
vn -0.453130 0.891442 -0.002210
vn -0.000581 0.999999 0.001464
vn -0.961376 -0.086925 0.261150
vn -0.852511 -0.136739 0.504507
vn -0.919256 -0.121995 -0.374281
vn -0.707078 -0.270964 -0.653161
vn -0.667617 -0.144555 0.730337
vn -0.496485 -0.344365 -0.796816
vn -0.356319 -0.167765 0.919180
vn -0.354355 -0.167999 0.919896
vn -0.263062 -0.368518 -0.891624
vn -0.000039 -0.188893 0.981998
vn -0.000063 -0.188889 0.981999
vn -0.000066 -0.372124 -0.928183
vn -0.000026 -0.372126 -0.928182
vn 0.361535 -0.167260 0.917233
vn 0.359584 -0.167496 0.917957
vn 0.267510 -0.368221 -0.890422
vn 0.667981 -0.144451 0.730024
vn 0.496798 -0.344293 -0.796652
vn 0.852796 -0.136697 0.504036
vn 0.707464 -0.270772 -0.652822
vn 0.961001 -0.087414 0.262366
vn 0.918652 -0.122502 -0.375595
vn -0.993791 -0.107081 -0.030211
vn 0.993794 -0.107070 -0.030172
vn -0.077284 0.996937 0.011992
vn -0.103344 0.993339 0.050964
vn -0.103496 0.993344 0.050555
vn -0.077386 0.996933 0.011669
vn -0.191327 0.973899 -0.122125
vn -0.117781 0.992790 -0.022268
vn -0.118085 0.992776 -0.021275
vn -0.192384 0.973792 -0.121314
vn -0.101304 0.989169 0.106214
vn -0.101449 0.989168 0.106087
vn -0.183462 0.946608 -0.265093
vn -0.183884 0.946544 -0.265031
vn -0.067186 0.986227 0.151135
vn -0.067450 0.986229 0.151007
vn -0.105742 0.932462 -0.345446
vn -0.105841 0.932459 -0.345423
vn -0.000074 0.984394 0.175978
vn 0.000065 0.984404 0.175925
vn -0.000075 0.929322 -0.369271
vn 0.000074 0.929326 -0.369260
vn 0.068105 0.986243 0.150622
vn 0.068438 0.986248 0.150435
vn 0.107424 0.932485 -0.344866
vn 0.107626 0.932488 -0.344794
vn 0.101316 0.989178 0.106124
vn 0.101466 0.989175 0.106006
vn 0.183555 0.946639 -0.264920
vn 0.183967 0.946580 -0.264843
vn 0.103472 0.993323 0.051016
vn 0.103612 0.993330 0.050592
vn 0.191452 0.973880 -0.122086
vn 0.192464 0.973782 -0.121272
vn 0.077458 0.996922 0.012109
vn 0.077537 0.996920 0.011768
vn 0.117934 0.992767 -0.022484
vn 0.118249 0.992751 -0.021516
vn -0.063590 0.997974 -0.002049
vn -0.063678 0.997969 -0.001909
vn 0.063760 0.997963 -0.002047
vn 0.063860 0.997957 -0.001920
vn -0.965231 -0.099103 0.241884
vn -0.993377 -0.114900 0.000053
vn -0.075070 0.997004 0.018649
vn -0.062179 0.998056 -0.004291
vn -0.100738 0.993253 0.057449
vn -0.856382 -0.143005 0.496145
vn -0.935353 -0.125709 -0.330623
vn -0.753034 -0.244651 -0.610808
vn -0.109729 0.993144 -0.040307
vn -0.176233 0.973720 -0.144263
vn -0.497832 -0.343991 -0.796137
vn -0.173092 0.946535 -0.272235
vn -0.098666 0.989199 0.108403
vn -0.668648 -0.153166 0.727634
vn -0.255502 -0.371439 -0.892610
vn -0.102864 0.932445 -0.346362
vn -0.062871 0.986194 0.153194
vn -0.375844 -0.164796 0.911912
vn -0.000074 -0.371975 -0.928243
vn -0.000083 0.929240 -0.369477
vn 0.000028 0.984236 0.176862
vn -0.000066 -0.188661 0.982042
vn 0.259633 -0.371220 -0.891508
vn 0.104266 0.932450 -0.345927
vn 0.063740 0.986225 0.152637
vn 0.380994 -0.164261 0.909869
vn 0.498191 -0.343914 -0.795945
vn 0.173189 0.946437 -0.272514
vn 0.098705 0.989240 0.107992
vn 0.669075 -0.153028 0.727270
vn 0.753234 -0.244527 -0.610610
vn 0.176730 0.973532 -0.144918
vn 0.101161 0.993208 0.057494
vn 0.856892 -0.142837 0.495311
vn 0.934943 -0.126115 -0.331627
vn 0.109532 0.993161 -0.040436
vn 0.075910 0.996934 0.018986
vn 0.964986 -0.099209 0.242818
vn 0.993405 -0.114657 0.000744
vn 0.062132 0.998060 -0.004049
s 1
g clam_broken_bottom
usemtl standardSurface5SG
f 1/74/1 2/75/2 6/2/3 5/1/4
f 2/75/2 3/76/5 7/4/6 6/2/7
f 3/76/5 4/79/8 8/48/9 7/4/10
s off
f 5/1/11 6/2/12 10/5/13 9/3/14
f 6/2/15 7/4/16 11/7/17 10/5/18
s 1
f 7/4/19 8/48/9 12/52/20 11/7/21
s off
f 9/3/22 10/5/23 14/15/24 13/6/25
f 10/5/26 11/7/27 15/16/28 14/15/29
s 1
f 11/7/30 12/52/20 16/56/31 15/16/32
s off
f 13/6/33 14/15/34 18/17/35 17/18/36
f 14/15/37 15/16/38 19/19/39 18/17/40
f 15/16/41 16/56/42 20/60/43 19/19/44
f 17/18/45 18/17/46 22/20/47 21/11/48
f 18/17/49 19/19/50 23/21/51 22/20/52
f 19/19/53 20/60/54 24/64/55 23/21/56
f 21/11/57 22/20/58 26/12/59 25/9/60
f 22/20/61 23/21/62 27/14/63 26/12/64
s 1
f 23/21/65 24/64/66 28/68/67 27/14/68
s off
f 25/9/69 26/12/70 30/10/71 29/8/72
f 26/12/73 27/14/74 31/13/75 30/10/76
s 1
f 27/14/77 28/68/67 32/71/78 31/13/79
f 29/8/80 30/10/81 34/82/82 33/86/83
f 30/10/84 31/13/85 35/83/86 34/82/82
f 31/13/87 32/71/78 36/84/88 35/83/86
f 38/44/89 37/73/90 1/74/1 5/1/91
f 39/47/92 38/44/89 5/1/93 9/3/94
s off
f 40/51/95 39/47/96 9/3/97 13/6/98
f 41/55/99 40/51/100 13/6/101 17/18/102
f 42/59/103 41/55/104 17/18/105 21/11/106
f 43/63/107 42/59/108 21/11/109 25/9/110
s 1
f 44/67/111 43/63/112 25/9/113 29/8/114
f 45/81/115 44/67/111 29/8/116 33/86/83
s 15
f 46/88/117 47/92/118 67/22/119 66/23/120
f 49/90/121 48/122/122 68/28/123 69/30/124
f 47/92/118 50/96/125 70/24/126 67/22/119
f 51/94/127 49/90/121 69/30/124 71/32/128
f 50/96/125 52/100/129 72/27/130 70/24/126
f 53/98/131 51/94/127 71/32/128 73/34/132
f 52/100/129 54/104/133 74/29/134 72/27/130
f 55/102/135 53/98/131 73/34/132 75/36/136
f 54/104/133 56/108/137 76/31/138 74/29/134
f 57/106/139 55/102/135 75/36/136 77/38/140
f 56/108/137 58/112/141 78/33/142 76/31/138
f 59/110/143 57/106/139 77/38/140 79/40/144
f 58/112/141 60/116/145 80/35/146 78/33/142
f 61/114/147 59/110/143 79/40/144 81/42/148
f 60/116/145 62/124/149 82/37/150 80/35/146
f 63/118/151 61/114/147 81/42/148 83/41/152
f 64/120/153 46/88/117 66/23/120 84/26/154
f 48/122/122 64/120/153 84/26/154 68/28/123
f 62/124/149 65/126/155 85/39/156 82/37/150
f 65/126/155 63/118/151 83/41/152 85/39/156
f 66/23/120 67/22/119 86/25/157
f 69/30/124 68/28/123 86/25/157
f 67/22/119 70/24/126 86/25/157
f 71/32/128 69/30/124 86/25/157
f 70/24/126 72/27/130 86/25/157
f 73/34/132 71/32/128 86/25/157
f 72/27/130 74/29/134 86/25/157
f 75/36/136 73/34/132 86/25/157
f 74/29/134 76/31/138 86/25/157
f 77/38/140 75/36/136 86/25/157
f 76/31/138 78/33/142 86/25/157
f 79/40/144 77/38/140 86/25/157
f 78/33/142 80/35/146 86/25/157
f 81/42/148 79/40/144 86/25/157
f 80/35/146 82/37/150 86/25/157
f 83/41/152 81/42/148 86/25/157
f 84/26/154 66/23/120 86/25/157
f 68/28/123 84/26/154 86/25/157
f 82/37/150 85/39/156 86/25/157
f 85/39/156 83/41/152 86/25/157
s 1
f 87/43/158 37/73/90 38/44/89 90/46/159
f 4/79/8 93/78/160 96/45/161 8/48/9
f 90/46/159 38/44/89 39/47/92 99/50/162
f 8/48/9 96/45/161 102/49/163 12/52/20
f 99/50/162 39/47/92 40/51/164 105/54/165
f 12/52/20 102/49/163 108/53/166 16/56/31
f 105/54/165 40/51/164 41/55/167 111/58/168
f 16/56/31 108/53/166 114/57/169 20/60/170
f 111/58/168 41/55/167 42/59/171 117/62/172
f 20/60/170 114/57/169 120/61/173 24/64/66
f 117/62/172 42/59/171 43/63/112 123/66/174
f 24/64/66 120/61/173 126/65/175 28/68/67
f 123/66/174 43/63/112 44/67/111 129/70/176
f 28/68/67 126/65/175 132/69/177 32/71/78
f 129/70/176 44/67/111 45/81/115 135/80/178
f 32/71/78 132/69/177 138/72/179 36/84/88
f 1/74/1 37/73/90 141/77/180
f 2/75/2 1/74/1 141/77/180
f 3/76/5 2/75/2 141/77/180
f 4/79/8 3/76/5 141/77/180
f 93/78/160 4/79/8 141/77/180
f 135/80/178 45/81/115 144/85/181
f 33/86/83 34/82/82 144/85/181
f 34/82/82 35/83/86 144/85/181
f 35/83/86 36/84/88 144/85/181
f 36/84/88 138/72/179 144/85/181
f 141/77/180 37/73/90 87/43/158
f 144/85/181 45/81/115 33/86/83
s 17
f 89/119/182 92/87/183 47/92/184 46/88/185
f 98/93/186 95/89/187 48/122/188 49/90/189
f 92/87/183 101/91/190 50/96/191 47/92/184
f 104/97/192 98/93/186 49/90/189 51/94/193
f 101/91/190 107/95/194 52/100/195 50/96/191
f 110/101/196 104/97/192 51/94/193 53/98/197
f 107/95/194 113/99/198 54/104/199 52/100/195
f 116/105/200 110/101/196 53/98/197 55/102/201
f 113/99/198 119/103/202 56/108/203 54/104/199
f 122/109/204 116/105/200 55/102/201 57/106/205
f 119/103/202 125/107/206 58/112/207 56/108/203
f 128/113/208 122/109/204 57/106/205 59/110/209
f 125/107/206 131/111/210 60/116/211 58/112/207
f 134/117/212 128/113/208 59/110/209 61/114/213
f 131/111/210 137/115/214 62/124/215 60/116/211
f 140/125/216 134/117/212 61/114/213 63/118/217
f 143/121/218 89/119/182 46/88/185 64/120/219
f 95/89/187 143/121/218 64/120/219 48/122/188
f 137/115/214 146/123/220 65/126/221 62/124/215
f 146/123/220 140/125/216 63/118/217 65/126/221
s 1
f 87/43/158 88/127/222 142/165/223 141/77/180
s 17
f 88/128/224 89/119/182 143/121/218 142/163/225
f 89/119/182 88/128/224 91/130/226 92/87/183
s 1
f 88/127/222 87/43/158 90/46/159 91/129/227
f 93/78/160 94/131/228 97/134/229 96/45/161
s 17
f 94/132/230 95/89/187 98/93/186 97/133/231
s 1
f 96/45/161 97/134/229 103/138/232 102/49/163
s 17
f 97/133/231 98/93/186 104/97/192 103/137/233
f 92/87/183 91/130/226 100/136/234 101/91/190
s 1
f 91/129/227 90/46/159 99/50/162 100/135/235
f 102/49/163 103/138/232 109/142/236 108/53/166
s 17
f 103/137/233 104/97/192 110/101/196 109/141/237
f 101/91/190 100/136/234 106/140/238 107/95/194
s 1
f 100/135/235 99/50/162 105/54/165 106/139/239
f 108/53/166 109/142/236 115/146/240 114/57/169
s 17
f 109/141/237 110/101/196 116/105/200 115/145/241
f 107/95/194 106/140/238 112/144/242 113/99/198
s 1
f 106/139/239 105/54/165 111/58/168 112/143/243
f 114/57/169 115/146/240 121/150/244 120/61/173
s 17
f 115/145/241 116/105/200 122/109/204 121/149/245
f 113/99/198 112/144/242 118/148/246 119/103/202
s 1
f 112/143/243 111/58/168 117/62/172 118/147/247
f 120/61/173 121/150/244 127/154/248 126/65/175
s 17
f 121/149/245 122/109/204 128/113/208 127/153/249
f 119/103/202 118/148/246 124/152/250 125/107/206
s 1
f 118/147/247 117/62/172 123/66/174 124/151/251
f 126/65/175 127/154/248 133/158/252 132/69/177
s 17
f 127/153/249 128/113/208 134/117/212 133/157/253
f 125/107/206 124/152/250 130/156/254 131/111/210
s 1
f 124/151/251 123/66/174 129/70/176 130/155/255
f 132/69/177 133/158/252 139/162/256 138/72/179
s 17
f 133/157/253 134/117/212 140/125/216 139/161/257
f 131/111/210 130/156/254 136/160/258 137/115/214
s 1
f 130/155/255 129/70/176 135/80/178 136/159/259
f 138/72/179 139/162/256 145/168/260 144/85/181
s 17
f 139/161/257 140/125/216 146/123/220 145/166/261
f 95/89/187 94/132/230 142/163/225 143/121/218
s 1
f 94/131/228 93/78/160 141/77/180 142/164/223
s 17
f 137/115/214 136/160/258 145/166/261 146/123/220
s 1
f 136/159/259 135/80/178 144/85/181 145/167/260
